# This file uses centimeters as units for non-parametric coordinates.

mtllib Breakable_OBJ.mtl
g default
v -0.136374 3.220116 3.906242
v -0.136374 2.720166 4.406192
v -0.136374 3.073684 4.259760
v 0.041803 3.220116 3.906242
v 0.041803 3.073684 4.259760
v 0.041803 2.720166 4.406192
v -0.136374 2.220116 3.906242
v -0.136374 2.366548 4.259760
v -0.136374 2.720066 4.406192
v 0.041803 2.220116 3.906242
v 0.041803 2.720066 4.406192
v 0.041803 2.366548 4.259760
v 0.041803 3.073684 3.552624
v 0.041803 3.220116 3.906142
v 0.041803 2.720166 3.406192
v -0.136374 3.220116 3.906142
v -0.136374 3.073684 3.552624
v -0.136374 2.720166 3.406192
v 0.041803 2.366548 3.552624
v 0.041803 2.720066 3.406192
v 0.041803 2.220116 3.906142
v -0.136374 2.220116 3.906142
v -0.136374 2.720066 3.406192
v -0.136374 2.366548 3.552624
v 0.041803 2.720066 3.406192
v 0.041803 2.366548 3.552624
v 0.041803 2.720166 3.406192
v 0.041803 3.073684 3.552624
v 0.041803 3.220116 3.906142
v 0.041803 3.220116 3.906242
v 0.041803 3.073684 4.259760
v 0.041803 2.720166 4.406192
v 0.041803 2.720066 4.406192
v 0.041803 2.366548 4.259760
v 0.041803 2.220116 3.906242
v 0.041803 2.220116 3.906142
v -0.246388 2.220116 3.906142
v -0.246388 2.220116 3.906242
v -0.246388 2.366548 4.259760
v -0.246388 2.720066 4.406192
v -0.246388 2.720166 4.406192
v -0.246388 3.073684 4.259760
v -0.246388 3.220116 3.906242
v -0.246388 3.220116 3.906142
v -0.246388 3.073684 3.552624
v -0.246388 2.720166 3.406192
v -0.246388 2.720066 3.406192
v -0.246388 2.366548 3.552624
v -0.206076 0.000000 3.927161
v -0.133237 0.000000 4.000000
v -0.169657 0.000000 3.990242
v -0.196318 0.000000 3.963581
v -0.206076 2.981136 3.927161
v -0.196318 2.981136 3.963581
v -0.169657 2.981136 3.990242
v -0.133237 2.981136 4.000000
v 0.000000 0.000000 3.927161
v -0.009759 0.000000 3.963581
v -0.036420 0.000000 3.990242
v -0.072839 0.000000 4.000000
v 0.000000 2.981136 3.927161
v -0.072839 2.981136 4.000000
v -0.036420 2.981136 3.990242
v -0.009759 2.981136 3.963581
v -0.169657 2.981136 3.817805
v -0.196318 2.981136 3.844466
v -0.206076 2.981136 3.880885
v -0.133237 2.981136 3.808046
v -0.206076 0.000000 3.880885
v -0.196318 0.000000 3.844466
v -0.169657 0.000000 3.817805
v -0.133237 0.000000 3.808046
v -0.009759 2.981136 3.844466
v -0.036420 2.981136 3.817805
v -0.072839 2.981136 3.808046
v 0.000000 2.981136 3.880885
v 0.000000 0.000000 3.880885
v -0.072839 0.000000 3.808046
v -0.036420 0.000000 3.817805
v -0.009759 0.000000 3.844466
v 0.045976 2.383401 3.962089
v 0.043026 2.384623 3.960866
v 0.041803 2.387573 3.957916
v 0.041803 2.473312 3.957916
v 0.043026 2.476263 3.960866
v 0.045976 2.477485 3.962089
v 0.058496 2.387573 3.957916
v 0.057273 2.384623 3.960866
v 0.054323 2.383401 3.962089
v 0.054323 2.477485 3.962089
v 0.057273 2.476263 3.960866
v 0.058496 2.473312 3.957916
v 0.041803 2.473312 3.855714
v 0.043026 2.476263 3.852763
v 0.045976 2.477485 3.851541
v 0.054323 2.477485 3.851541
v 0.057273 2.476263 3.852763
v 0.058496 2.473312 3.855714
v 0.041803 2.387573 3.855714
v 0.043026 2.384623 3.852763
v 0.045976 2.383401 3.851541
v 0.054323 2.383401 3.851541
v 0.057273 2.384623 3.852763
v 0.058496 2.387573 3.855714
v 0.045976 2.545747 3.962089
v 0.043026 2.546968 3.960866
v 0.041803 2.549919 3.957916
v 0.041803 3.068329 3.957916
v 0.043026 3.071279 3.960866
v 0.045976 3.072501 3.962089
v 0.058496 2.549919 3.957916
v 0.057273 2.546968 3.960866
v 0.054323 2.545747 3.962089
v 0.054323 3.072501 3.962089
v 0.057273 3.071279 3.960866
v 0.058496 3.068329 3.957916
v 0.041803 3.068329 3.855714
v 0.043026 3.071279 3.852763
v 0.045976 3.072501 3.851541
v 0.054323 3.072501 3.851541
v 0.057273 3.071279 3.852763
v 0.058496 3.068329 3.855714
v 0.041803 2.549919 3.855714
v 0.043026 2.546968 3.852763
v 0.045976 2.545747 3.851541
v 0.054323 2.545747 3.851541
v 0.057273 2.546968 3.852763
v 0.058496 2.549919 3.855714
vt 0.328353 0.332320
vt 0.846257 0.784219
vt 0.846326 0.784204
vt 0.328326 0.332301
vt 0.680738 0.362538
vt 0.560287 0.097399
vt 0.560263 0.097375
vt 0.680804 0.362522
vt 0.338666 0.112213
vt 0.971617 0.489245
vt 0.971591 0.489177
vt 0.338685 0.112188
vt 0.567785 0.333444
vt 0.553565 0.669280
vt 0.553593 0.669341
vt 0.567759 0.333469
vt 0.678028 0.783286
vt 0.444807 0.379351
vt 0.971617 0.664220
vt 0.285182 0.218004
vt 0.634233 0.215410
vt 0.558167 0.461836
vt 0.442358 0.057219
vt 0.849385 0.369390
vt 0.442355 0.057227
vt 0.560261 0.097378
vt 0.560284 0.097398
vt 0.634228 0.215410
vt 0.567785 0.333439
vt 0.567761 0.333465
vt 0.444806 0.379348
vt 0.328354 0.332317
vt 0.328329 0.332297
vt 0.285185 0.218004
vt 0.338669 0.112211
vt 0.338690 0.112190
vt 0.936194 0.507979
vt 0.936204 0.508016
vt 0.933350 0.651573
vt 0.830971 0.746227
vt 0.830939 0.746241
vt 0.688438 0.744431
vt 0.586199 0.644812
vt 0.586187 0.644777
vt 0.580517 0.499537
vt 0.689581 0.401218
vt 0.689612 0.401209
vt 0.835109 0.406693
vt 0.680029 0.161874
vt 0.680029 0.264344
vt 0.535734 0.510534
vt 0.292476 0.074979
vt 0.426869 0.001953
vt 0.583784 0.042577
vt 0.583825 0.042610
vt 0.596266 0.382293
vt 0.227561 0.221087
vt 0.292435 0.075011
vt 0.291371 0.375189
vt 0.443637 0.435975
vt 0.291409 0.375235
vt 0.596221 0.382322
vt 0.171160 0.001958
vt 0.171160 0.998047
vt 0.150979 0.998047
vt 0.150980 0.001958
vt 0.039748 0.998047
vt 0.039748 0.001958
vt 0.059928 0.001958
vt 0.059928 0.998047
vt 0.113185 0.001958
vt 0.113185 0.998047
vt 0.097723 0.998047
vt 0.097723 0.001958
vt 0.224417 0.001958
vt 0.224417 0.998047
vt 0.208955 0.998047
vt 0.208955 0.001958
vt 0.196357 0.998047
vt 0.196357 0.001958
vt 0.183758 0.998047
vt 0.183759 0.001958
vt 0.138381 0.998047
vt 0.138381 0.001958
vt 0.125783 0.998047
vt 0.125783 0.001958
vt 0.001953 0.001958
vt 0.014551 0.001958
vt 0.014551 0.998047
vt 0.001953 0.998047
vt 0.027149 0.001958
vt 0.027149 0.998047
vt 0.072527 0.001958
vt 0.072527 0.998047
vt 0.085125 0.001958
vt 0.085125 0.998047
vt 0.441042 0.520112
vt 0.443023 0.522256
vt 0.381523 0.522256
vt 0.383503 0.520112
vt 0.443843 0.524399
vt 0.380703 0.524399
vt 0.443843 0.530000
vt 0.443023 0.532144
vt 0.381523 0.532144
vt 0.380703 0.530000
vt 0.441042 0.534287
vt 0.383503 0.534287
vt 0.373615 0.531487
vt 0.379216 0.531487
vt 0.379216 0.605676
vt 0.373615 0.605676
vt 0.380703 0.612764
vt 0.380703 0.607162
vt 0.443843 0.607162
vt 0.443843 0.612764
vt 0.450931 0.605676
vt 0.445329 0.605676
vt 0.445329 0.531487
vt 0.450931 0.531487
vt 0.441042 0.602875
vt 0.383503 0.602875
vt 0.369328 0.534287
vt 0.371472 0.532307
vt 0.371472 0.604856
vt 0.369328 0.602875
vt 0.381360 0.532307
vt 0.381360 0.604856
vt 0.383503 0.617050
vt 0.381523 0.614907
vt 0.443023 0.614907
vt 0.441042 0.617050
vt 0.381523 0.605019
vt 0.443023 0.605019
vt 0.453074 0.532307
vt 0.453074 0.604856
vt 0.455217 0.534287
vt 0.455217 0.602875
vt 0.443186 0.532307
vt 0.443186 0.604856
vt 0.332237 0.698873
vt 0.330578 0.700406
vt 0.330578 0.428049
vt 0.332237 0.429582
vt 0.328919 0.701040
vt 0.328919 0.427414
vt 0.324583 0.701040
vt 0.322924 0.700406
vt 0.322924 0.428049
vt 0.324583 0.427414
vt 0.321265 0.698873
vt 0.321265 0.429582
vt 0.323433 0.421928
vt 0.323433 0.426264
vt 0.266008 0.426264
vt 0.266008 0.421928
vt 0.260522 0.427414
vt 0.264858 0.427414
vt 0.264858 0.701040
vt 0.260522 0.701040
vt 0.266008 0.706527
vt 0.266008 0.702191
vt 0.323433 0.702191
vt 0.323433 0.706527
vt 0.268176 0.698873
vt 0.268176 0.429582
vt 0.321265 0.418610
vt 0.322798 0.420269
vt 0.266643 0.420269
vt 0.268176 0.418610
vt 0.322798 0.427923
vt 0.266643 0.427923
vt 0.257204 0.429582
vt 0.258863 0.428049
vt 0.258863 0.700406
vt 0.257204 0.698873
vt 0.266517 0.428049
vt 0.266517 0.700406
vt 0.322798 0.708185
vt 0.266643 0.708185
vt 0.321265 0.709844
vt 0.268176 0.709844
vt 0.322798 0.700532
vt 0.266643 0.700532
vn 0.000000 0.382591 0.923918
vn 0.000000 0.382591 0.923918
vn 0.000000 -0.382591 0.923918
vn 0.000000 -0.382591 0.923918
vn 0.000000 0.382591 -0.923918
vn 0.000000 0.382591 -0.923918
vn 0.000000 -0.382591 -0.923918
vn 0.000000 -0.382591 -0.923918
vn 0.000000 -0.923918 0.382591
vn 0.000000 -0.923918 0.382591
vn 0.000000 -0.923918 -0.382591
vn 0.000000 -0.923918 -0.382591
vn 0.000000 0.923918 -0.382591
vn 0.000000 0.923918 -0.382591
vn 0.000000 0.923918 0.382591
vn 0.000000 0.923918 0.382591
vn 0.000000 0.923879 0.382684
vn 0.000000 0.923879 0.382684
vn 0.000000 0.382684 0.923880
vn 0.000000 0.382684 0.923880
vn 0.000000 -0.382683 0.923880
vn 0.000000 -0.382683 0.923880
vn 0.000000 -0.923880 0.382683
vn 0.000000 -0.923880 0.382683
vn 0.000000 0.923879 -0.382684
vn 0.000000 0.923879 -0.382684
vn 0.000000 0.382684 -0.923880
vn 0.000000 0.382684 -0.923880
vn 0.000000 -0.382683 -0.923880
vn 0.000000 -0.382683 -0.923880
vn 0.000000 -0.923880 -0.382683
vn 0.000000 -0.923880 -0.382683
vn 1.000000 -0.000000 0.000000
vn 1.000000 -0.000000 0.000000
vn 1.000000 -0.000000 0.000000
vn 1.000000 -0.000000 0.000000
vn 1.000000 -0.000000 0.000000
vn 1.000000 -0.000000 0.000000
vn 1.000000 -0.000000 0.000000
vn 1.000000 -0.000000 0.000000
vn 1.000000 -0.000000 0.000000
vn 1.000000 -0.000000 0.000000
vn 1.000000 -0.000000 0.000000
vn 1.000000 -0.000000 0.000000
vn -1.000000 0.000000 0.000000
vn -1.000000 0.000000 0.000000
vn -1.000000 0.000000 0.000000
vn -1.000000 0.000000 0.000000
vn -1.000000 0.000000 0.000000
vn -1.000000 0.000000 0.000000
vn -1.000000 0.000000 0.000000
vn -1.000000 0.000000 0.000000
vn -1.000000 0.000000 0.000000
vn -1.000000 0.000000 0.000000
vn -1.000000 0.000000 0.000000
vn -1.000000 0.000000 0.000000
vn 0.000000 0.000000 0.000000
vn 0.000000 0.000000 0.000000
vn 0.000000 0.000000 0.000000
vn 0.000000 0.000000 0.000000
vn 0.000000 0.000000 0.000000
vn 0.000000 0.000000 0.000000
vn 0.000000 0.000000 0.000000
vn 0.000000 0.000000 0.000000
vn 0.000000 0.000000 0.000000
vn 0.000000 0.000000 0.000000
vn 0.000000 0.000000 0.000000
vn 0.000000 0.000000 0.000000
vn 0.000000 0.000000 0.000000
vn 0.000000 0.000000 0.000000
vn 0.000000 0.000000 0.000000
vn 0.000000 0.000000 0.000000
vn 0.000000 0.000000 0.000000
vn 0.000000 0.000000 0.000000
vn 0.000000 0.000000 0.000000
vn 0.000000 0.000000 0.000000
vn 0.000000 0.000000 0.000000
vn 0.000000 0.000000 0.000000
vn 0.000000 0.000000 0.000000
vn 0.000000 0.000000 0.000000
vn 0.000000 0.000000 0.000000
vn 0.000000 0.000000 0.000000
vn 0.000000 0.000000 0.000000
vn 0.000000 0.000000 0.000000
vn 0.000000 0.000000 0.000000
vn 0.000000 0.000000 0.000000
vn 0.000000 0.000000 0.000000
vn 0.000000 0.000000 0.000000
vn 0.000000 0.000000 0.000000
vn 0.000000 0.000000 0.000000
vn 0.000000 0.000000 0.000000
vn 0.000000 0.000000 0.000000
vn 0.000000 0.000000 0.000000
vn 0.000000 0.000000 0.000000
vn 0.000000 0.000000 0.000000
vn 0.000000 0.000000 0.000000
vn 0.000000 0.000000 0.000000
vn 0.000000 0.000000 0.000000
vn 0.000000 0.000000 0.000000
vn 0.000000 0.000000 0.000000
vn 0.000000 0.000000 0.000000
vn 0.000000 0.000000 0.000000
vn 0.000000 0.000000 0.000000
vn 0.000000 0.000000 0.000000
vn 0.000000 -1.000000 0.000000
vn 0.000000 -1.000000 0.000000
vn 0.000000 -1.000000 0.000000
vn 0.000000 -1.000000 0.000000
vn 0.000000 -0.923879 0.382684
vn 0.000000 -0.923879 0.382684
vn 0.000000 -0.923879 0.382684
vn 0.000000 -0.923879 0.382684
vn 0.000000 -0.382683 0.923880
vn 0.000000 -0.382683 0.923880
vn 0.000000 -0.382683 0.923880
vn 0.000000 -0.382683 0.923880
vn 0.000000 0.000000 1.000000
vn 0.000000 0.000000 1.000000
vn 0.000000 0.000000 1.000000
vn 0.000000 0.000000 1.000000
vn 0.000000 0.382683 0.923880
vn 0.000000 0.382683 0.923880
vn 0.000000 0.382683 0.923880
vn 0.000000 0.382683 0.923880
vn 0.000000 0.923879 0.382684
vn 0.000000 0.923879 0.382684
vn 0.000000 0.923879 0.382684
vn 0.000000 0.923879 0.382684
vn 0.000000 1.000000 0.000000
vn 0.000000 1.000000 0.000000
vn 0.000000 1.000000 0.000000
vn 0.000000 1.000000 0.000000
vn 0.000000 0.923879 -0.382684
vn 0.000000 0.923879 -0.382684
vn 0.000000 0.923879 -0.382684
vn 0.000000 0.923879 -0.382684
vn 0.000000 0.382683 -0.923880
vn 0.000000 0.382683 -0.923880
vn 0.000000 0.382683 -0.923880
vn 0.000000 0.382683 -0.923880
vn 0.000000 0.000000 -1.000000
vn 0.000000 0.000000 -1.000000
vn 0.000000 0.000000 -1.000000
vn 0.000000 0.000000 -1.000000
vn 0.000000 -0.382683 -0.923880
vn 0.000000 -0.382683 -0.923880
vn 0.000000 -0.382683 -0.923880
vn 0.000000 -0.382683 -0.923880
vn 0.000000 -0.923879 -0.382684
vn 0.000000 -0.923879 -0.382684
vn 0.000000 -0.923879 -0.382684
vn 0.000000 -0.923879 -0.382684
vn -0.100283 0.000000 0.994959
vn -0.100283 0.000000 0.994959
vn 0.100283 0.000000 0.994959
vn 0.100283 0.000000 0.994959
vn -0.100283 0.000000 -0.994959
vn -0.100283 0.000000 -0.994959
vn 0.100283 0.000000 -0.994959
vn 0.100283 0.000000 -0.994959
vn 0.993109 0.000000 0.117193
vn 0.993109 0.000000 0.117193
vn 0.993109 0.000000 -0.117194
vn 0.993109 0.000000 -0.117194
vn -0.993109 0.000000 -0.117194
vn -0.993109 0.000000 -0.117194
vn -0.993109 0.000000 0.117193
vn -0.993109 0.000000 0.117193
vn -0.965927 0.000000 0.258816
vn -0.965927 0.000000 0.258816
vn -0.707103 0.000000 0.707110
vn -0.707103 0.000000 0.707110
vn -0.707103 0.000000 0.707110
vn -0.707103 0.000000 0.707110
vn -0.258812 0.000000 0.965928
vn -0.258812 0.000000 0.965928
vn 0.258812 0.000000 0.965928
vn 0.258812 0.000000 0.965928
vn 0.707104 0.000000 0.707110
vn 0.707104 0.000000 0.707110
vn 0.707104 0.000000 0.707110
vn 0.707104 0.000000 0.707110
vn 0.965927 0.000000 0.258816
vn 0.965927 0.000000 0.258816
vn -0.965926 0.000000 -0.258820
vn -0.965926 0.000000 -0.258820
vn -0.707112 0.000000 -0.707102
vn -0.707112 0.000000 -0.707102
vn -0.707112 0.000000 -0.707102
vn -0.707112 0.000000 -0.707102
vn -0.258812 0.000000 -0.965928
vn -0.258812 0.000000 -0.965928
vn 0.258812 0.000000 -0.965928
vn 0.258812 0.000000 -0.965928
vn 0.707112 0.000000 -0.707102
vn 0.707112 0.000000 -0.707102
vn 0.707112 0.000000 -0.707102
vn 0.707112 0.000000 -0.707102
vn 0.965926 0.000000 -0.258821
vn 0.965926 0.000000 -0.258821
vn -0.923888 0.000000 0.382663
vn -0.923888 0.000000 0.382663
vn -0.923888 0.000000 0.382663
vn -0.923888 0.000000 0.382663
vn -0.382677 0.000000 0.923882
vn -0.087141 0.000000 0.996196
vn -0.087138 0.000000 0.996196
vn -0.382677 0.000000 0.923882
vn 0.087141 0.000000 0.996196
vn 0.382677 0.000000 0.923882
vn 0.382677 0.000000 0.923882
vn 0.087138 0.000000 0.996196
vn 0.923888 0.000000 0.382663
vn 0.999667 -0.019724 0.016635
vn 0.999667 0.019724 0.016635
vn 0.923888 0.000000 0.382663
vn -0.087274 0.996184 0.000000
vn 0.087274 0.996184 0.000000
vn 0.087274 0.996184 0.000000
vn -0.087274 0.996184 0.000000
vn -0.087139 0.000000 -0.996196
vn 0.087139 0.000000 -0.996196
vn 0.087143 0.000000 -0.996196
vn -0.087143 0.000000 -0.996196
vn -0.087256 -0.996186 0.000000
vn 0.087256 -0.996186 0.000000
vn 0.087256 -0.996186 0.000000
vn -0.087256 -0.996186 0.000000
vn 0.999667 -0.019724 -0.016636
vn 0.999667 0.019724 -0.016636
vn -0.923887 0.382665 0.000000
vn -0.923887 0.382665 0.000000
vn -0.923887 0.382665 0.000000
vn -0.923887 0.382665 0.000000
vn -0.382684 0.923879 0.000000
vn -0.382684 0.923879 0.000000
vn 0.382685 0.923879 0.000000
vn 0.382685 0.923879 0.000000
vn 0.923887 0.382665 0.000000
vn 0.923887 0.382665 0.000000
vn -0.923872 0.000000 -0.382700
vn -0.923872 0.000000 -0.382700
vn -0.923872 0.000000 -0.382700
vn -0.923872 0.000000 -0.382700
vn -0.382677 0.000000 -0.923882
vn -0.382677 0.000000 -0.923882
vn 0.382677 0.000000 -0.923882
vn 0.382677 0.000000 -0.923882
vn 0.923872 0.000000 -0.382700
vn 0.923872 0.000000 -0.382700
vn -0.382620 -0.923906 0.000000
vn -0.382620 -0.923906 0.000000
vn -0.923887 -0.382665 0.000000
vn -0.923887 -0.382665 0.000000
vn -0.923887 -0.382665 0.000000
vn -0.923887 -0.382665 0.000000
vn 0.923887 -0.382665 0.000000
vn 0.923887 -0.382665 0.000000
vn 0.382621 -0.923905 0.000000
vn 0.382621 -0.923905 0.000000
vn -0.923921 0.000000 0.382583
vn -0.923921 0.000000 0.382583
vn -0.923921 0.000000 0.382583
vn -0.923921 0.000000 0.382583
vn -0.382577 0.000000 0.923924
vn -0.087852 0.000000 0.996134
vn -0.087849 0.000000 0.996134
vn -0.382577 0.000000 0.923924
vn 0.087852 0.000000 0.996134
vn 0.382577 0.000000 0.923923
vn 0.382577 0.000000 0.923924
vn 0.087849 0.000000 0.996134
vn 0.923921 0.000000 0.382583
vn 0.999852 -0.003402 0.016865
vn 0.999852 0.003402 0.016865
vn 0.923921 0.000000 0.382583
vn -0.087274 0.996184 0.000000
vn 0.087274 0.996184 0.000000
vn 0.087274 0.996184 0.000000
vn -0.087274 0.996184 0.000000
vn -0.087880 0.000000 -0.996131
vn 0.087880 0.000000 -0.996131
vn 0.087884 0.000000 -0.996131
vn -0.087884 0.000000 -0.996131
vn -0.087256 -0.996186 0.000000
vn 0.087256 -0.996186 0.000000
vn 0.087256 -0.996186 0.000000
vn -0.087256 -0.996186 0.000000
vn 0.999852 -0.003402 -0.016866
vn 0.999852 0.003402 -0.016866
vn -0.923876 0.382693 0.000000
vn -0.923876 0.382693 0.000000
vn -0.923876 0.382693 0.000000
vn -0.923876 0.382693 0.000000
vn -0.382684 0.923879 0.000000
vn -0.382684 0.923879 0.000000
vn 0.382685 0.923879 0.000000
vn 0.382685 0.923879 0.000000
vn 0.923876 0.382693 0.000000
vn 0.923876 0.382693 0.000000
vn -0.923879 0.000000 -0.382684
vn -0.923879 0.000000 -0.382684
vn -0.923879 0.000000 -0.382684
vn -0.923879 0.000000 -0.382684
vn -0.382698 0.000000 -0.923873
vn -0.382698 0.000000 -0.923874
vn 0.382699 0.000000 -0.923873
vn 0.382699 0.000000 -0.923873
vn 0.923879 0.000000 -0.382684
vn 0.923879 0.000000 -0.382684
vn -0.382620 -0.923906 0.000000
vn -0.382620 -0.923906 0.000000
vn -0.923887 -0.382665 0.000000
vn -0.923887 -0.382665 0.000000
vn -0.923887 -0.382665 0.000000
vn -0.923887 -0.382665 0.000000
vn 0.923887 -0.382665 0.000000
vn 0.923887 -0.382665 0.000000
vn 0.382621 -0.923905 0.000000
vn 0.382621 -0.923905 0.000000
s 1
g Breakable
usemtl initialShadingGroup
f 6/1/1 2/61/2 9/59/3 11/4/4
s 2
f 18/55/5 15/6/6 20/7/7 23/54/8
s 3
f 10/9/9 7/58/10 22/52/11 21/12/12
s 4
f 14/13/13 16/56/14 1/62/15 4/16/16
f 1/62/15 3/60/17 5/18/18 4/16/16
s 1
f 3/60/19 2/61/2 6/1/1 5/18/20
f 9/59/3 8/57/21 12/20/22 11/4/4
s 3
f 8/57/23 7/58/10 10/9/9 12/20/24
s 4
f 14/13/13 13/21/25 17/50/26 16/56/14
s 2
f 13/21/27 15/6/6 18/55/5 17/49/28
f 20/7/7 19/23/29 24/53/30 23/54/8
s 3
f 19/23/31 21/12/12 22/52/11 24/53/32
s off
f 26/25/33 25/26/34 27/27/35 28/28/36 29/29/37 30/30/38 31/31/39 32/32/40 33/33/41 34/34/42 35/35/43 36/36/44
f 37/37/45 38/38/46 39/39/47 40/40/48 41/41/49 42/42/50 43/43/51 44/44/52 45/45/53 46/46/54 47/47/55 48/48/56
f 19/23/57 20/7/58 25/26/59 26/25/60
f 20/7/61 15/6/62 27/27/63 25/26/64
f 15/6/65 13/21/66 28/28/67 27/27/68
f 13/21/69 14/13/70 29/29/71 28/28/72
f 14/13/73 4/16/74 30/30/75 29/29/76
f 4/16/77 5/18/78 31/31/79 30/30/80
f 5/18/81 6/1/82 32/32/83 31/31/84
f 6/1/85 11/4/86 33/33/87 32/32/88
f 11/4/89 12/20/90 34/34/91 33/33/92
f 12/20/93 10/9/94 35/35/95 34/34/96
f 10/9/97 21/12/98 36/36/99 35/35/100
f 21/12/101 19/23/102 26/25/103 36/36/104
f 22/11/105 7/10/106 38/38/107 37/37/108
f 7/10/109 8/19/110 39/39/111 38/38/112
f 8/19/113 9/3/114 40/40/115 39/39/116
f 9/3/117 2/2/118 41/41/119 40/40/120
f 2/2/121 3/17/122 42/42/123 41/41/124
f 3/17/125 1/15/126 43/43/127 42/42/128
f 1/15/129 16/14/130 44/44/131 43/43/132
f 16/14/133 17/51/134 45/45/135 44/44/136
f 17/22/137 18/5/138 46/46/139 45/45/140
f 18/5/141 23/8/142 47/47/143 46/46/144
f 23/8/145 24/24/146 48/48/147 47/47/148
f 24/24/149 22/11/150 37/37/151 48/48/152
s 5
f 56/63/153 50/64/154 60/65/155 62/66/156
s 6
f 72/67/157 68/68/158 75/69/159 78/70/160
s 7
f 61/71/161 57/72/162 77/73/163 76/74/164
s 8
f 67/75/165 69/76/166 49/77/167 53/78/168
f 49/77/167 52/79/169 54/80/170 53/78/168
s off
f 52/79/171 51/81/172 55/82/173 54/80/174
s 5
f 51/81/175 50/64/154 56/63/153 55/82/176
f 60/65/155 59/83/177 63/84/178 62/66/156
s off
f 59/83/179 58/85/180 64/86/181 63/84/182
s 7
f 58/85/183 57/72/162 61/71/161 64/86/184
s 8
f 67/87/165 66/88/185 70/89/186 69/90/166
s off
f 66/88/187 65/91/188 71/92/189 70/89/190
s 6
f 65/91/191 68/68/158 72/67/157 71/92/192
f 75/69/159 74/93/193 79/94/194 78/70/160
s off
f 74/93/195 73/95/196 80/96/197 79/94/198
s 7
f 73/95/199 76/74/164 77/73/163 80/96/200
s off
f 83/97/201 82/98/202 85/99/203 84/100/204
s 9
f 82/98/205 81/101/206 86/102/207 85/99/208
f 89/103/209 88/104/210 91/105/211 90/106/212
s 10
f 88/104/213 87/107/214 92/108/215 91/105/216
s 9
f 81/101/206 89/103/209 90/106/212 86/102/207
s 11
f 86/109/217 90/110/218 96/111/219 95/112/220
s 12
f 95/113/221 96/114/222 102/115/223 101/116/224
s 13
f 101/117/225 102/118/226 89/119/227 81/120/228
s 10
f 87/107/214 104/121/229 98/122/230 92/108/215
s off
f 84/123/231 85/124/232 94/125/233 93/126/234
s 11
f 85/124/235 86/109/217 95/112/220 94/125/236
f 90/110/218 91/127/237 97/128/238 96/111/219
s 10
f 91/127/239 92/108/215 98/122/230 97/128/240
s off
f 93/129/241 94/130/242 100/131/243 99/132/244
s 12
f 94/130/245 95/113/221 101/116/224 100/131/246
f 96/114/222 97/133/247 103/134/248 102/115/223
s 10
f 97/133/249 98/122/230 104/121/229 103/134/250
s 13
f 81/120/228 82/135/251 100/136/252 101/117/225
s off
f 82/135/253 83/137/254 99/138/255 100/136/256
s 10
f 87/107/214 88/139/257 103/140/258 104/121/229
s 13
f 88/139/259 89/119/227 102/118/226 103/140/260
s off
f 107/141/261 106/142/262 109/143/263 108/144/264
s 14
f 106/142/265 105/145/266 110/146/267 109/143/268
f 113/147/269 112/148/270 115/149/271 114/150/272
s 15
f 112/148/273 111/151/274 116/152/275 115/149/276
s 14
f 105/145/266 113/147/269 114/150/272 110/146/267
s 16
f 110/153/277 114/154/278 120/155/279 119/156/280
s 17
f 119/157/281 120/158/282 126/159/283 125/160/284
s 18
f 125/161/285 126/162/286 113/163/287 105/164/288
s 15
f 111/151/274 128/165/289 122/166/290 116/152/275
s off
f 108/167/291 109/168/292 118/169/293 117/170/294
s 16
f 109/168/295 110/153/277 119/156/280 118/169/296
f 114/154/278 115/171/297 121/172/298 120/155/279
s 15
f 115/171/299 116/152/275 122/166/290 121/172/300
s off
f 117/173/301 118/174/302 124/175/303 123/176/304
s 17
f 118/174/305 119/157/281 125/160/284 124/175/306
f 120/158/282 121/177/307 127/178/308 126/159/283
s 15
f 121/177/309 122/166/290 128/165/289 127/178/310
s 18
f 105/164/288 106/179/311 124/180/312 125/161/285
s off
f 106/179/313 107/181/314 123/182/315 124/180/316
s 15
f 111/151/274 112/183/317 127/184/318 128/165/289
s 18
f 112/183/319 113/163/287 126/162/286 127/184/320
